<svg width="16" height="16" viewBox="0 0 16 16" fill="none" xmlns="http://www.w3.org/2000/svg">
<path d="M10.08 7.68C10.08 8.31652 9.82714 8.92697 9.37706 9.37706C8.92697 9.82714 8.31652 10.08 7.68 10.08C7.04348 10.08 6.43303 9.82714 5.98294 9.37706C5.53286 8.92697 5.28 8.31652 5.28 7.68C5.28 7.5432 5.2944 7.4096 5.3192 7.28H4.48V10.4776C4.48 10.7 4.66 10.88 4.8824 10.88H10.4784C10.585 10.8798 10.6871 10.8373 10.7624 10.7619C10.8377 10.6864 10.88 10.5842 10.88 10.4776V7.28H10.0408C10.0656 7.4096 10.08 7.5432 10.08 7.68ZM7.68 9.28C7.89017 9.27995 8.09827 9.2385 8.29242 9.15802C8.48657 9.07755 8.66296 8.95962 8.81154 8.81097C8.96011 8.66232 9.07795 8.48587 9.15833 8.29168C9.23871 8.09749 9.28005 7.88937 9.28 7.6792C9.27995 7.46903 9.2385 7.26093 9.15802 7.06678C9.07755 6.87263 8.95962 6.69624 8.81097 6.54766C8.66232 6.39909 8.48587 6.28125 8.29168 6.20087C8.09749 6.12049 7.88937 6.07915 7.6792 6.0792C7.25475 6.07931 6.84772 6.24802 6.54766 6.54823C6.24761 6.84844 6.07909 7.25555 6.0792 7.68C6.07931 8.10445 6.24802 8.51148 6.54823 8.81154C6.84844 9.1116 7.25555 9.28011 7.68 9.28ZM9.6 6H10.5592C10.6229 6 10.6841 5.97474 10.7292 5.92975C10.7743 5.88477 10.7998 5.82373 10.8 5.76V4.8008C10.8 4.73694 10.7746 4.67569 10.7295 4.63053C10.6843 4.58537 10.6231 4.56 10.5592 4.56H9.6C9.53614 4.56 9.47489 4.58537 9.42973 4.63053C9.38457 4.67569 9.3592 4.73694 9.3592 4.8008V5.76C9.36 5.892 9.468 6 9.6 6ZM7.68 0C5.64314 0 3.6897 0.80914 2.24942 2.24942C0.80914 3.6897 0 5.64314 0 7.68C0 9.71686 0.80914 11.6703 2.24942 13.1106C3.6897 14.5509 5.64314 15.36 7.68 15.36C8.68855 15.36 9.68723 15.1614 10.619 14.7754C11.5508 14.3894 12.3974 13.8237 13.1106 13.1106C13.8237 12.3974 14.3894 11.5508 14.7754 10.619C15.1614 9.68723 15.36 8.68855 15.36 7.68C15.36 6.67145 15.1614 5.67277 14.7754 4.74099C14.3894 3.80921 13.8237 2.96257 13.1106 2.24942C12.3974 1.53627 11.5508 0.970561 10.619 0.584605C9.68723 0.198649 8.68855 0 7.68 0ZM11.68 10.7912C11.68 11.28 11.28 11.68 10.7912 11.68H4.5688C4.08 11.68 3.68 11.28 3.68 10.7912V4.5688C3.68 4.08 4.08 3.68 4.5688 3.68H10.7912C11.28 3.68 11.68 4.08 11.68 4.5688V10.7912Z" fill="black"/>
</svg>
